<svg xmlns="http://www.w3.org/2000/svg" viewBox="0 0 100 100" width="100" height="100">
  <ellipse cx="50" cy="85" rx="20" ry="7" fill="rgba(0,0,0,0.15)" />
  <!-- ธนูทองคำเรืองแสง -->
  <path d="M 28 30 Q 5 55 28 80" fill="none" stroke="#F59E0B" stroke-width="6" stroke-linecap="round" />
  <path d="M 28 30 Q 5 55 28 80" fill="none" stroke="#FEF3C7" stroke-width="2" />
  <line x1="28" y1="30" x2="28" y2="80" stroke="#F8FAFC" stroke-width="2" />
  <!-- ลูกธนูพลังงาน 3 ดอกง้างอยู่ -->
  <line x1="10" y1="55" x2="28" y2="55" stroke="#10B981" stroke-width="3" />
  <line x1="12" y1="50" x2="28" y2="50" stroke="#10B981" stroke-width="2" />
  <line x1="12" y1="60" x2="28" y2="60" stroke="#10B981" stroke-width="2" />
  <!-- ชุด Master Archer -->
  <rect x="35" y="45" width="30" height="35" rx="6" fill="#F8FAFC" stroke="#F59E0B" stroke-width="2" />
  <path d="M 35 45 L 65 45 L 50 70 Z" fill="#10B981" />
  <!-- หัวและฮู้ดทอง -->
  <circle cx="50" cy="38" r="15" fill="#fcdbb6" />
  <circle cx="45" cy="36" r="2.5" fill="#333333" /><circle cx="55" cy="36" r="2.5" fill="#333333" />
  <path d="M 30 38 Q 50 5 70 38 Q 50 20 30 38 Z" fill="#10B981" stroke="#F59E0B" stroke-width="2" />
</svg>
