<svg xmlns="http://www.w3.org/2000/svg" viewBox="0 0 100 100" width="100" height="100">
  <ellipse cx="50" cy="85" rx="18" ry="7" fill="rgba(0,0,0,0.15)" />
  <rect x="62" y="42" width="10" height="22" rx="2" transform="rotate(15 67 53)" fill="#78350F" />
  <circle cx="63" cy="34" r="1.5" fill="#10B981" /><circle cx="70" cy="36" r="1.5" fill="#10B981" />
  <!-- ธนูเหล็ก -->
  <path d="M 28 35 Q 10 55 28 85" fill="none" stroke="#64748B" stroke-width="5" stroke-linecap="round" />
  <line x1="28" y1="35" x2="28" y2="85" stroke="#CBD5E1" stroke-width="1.5" />
  <!-- ชุดคลุม -->
  <rect x="35" y="45" width="30" height="30" rx="6" fill="#F8FAFC" />
  <path d="M 30 45 L 70 45 L 50 65 Z" fill="#10B981" /> <!-- ผ้าคลุมไหล่ยาวขึ้น -->
  <circle cx="50" cy="38" r="15" fill="#fcdbb6" />
  <circle cx="45" cy="36" r="2.5" fill="#333333" /><circle cx="55" cy="36" r="2.5" fill="#333333" />
  <path d="M 33 38 Q 50 12 67 38 Q 50 25 33 38 Z" fill="#10B981" />
</svg>
