<svg xmlns="http://www.w3.org/2000/svg" viewBox="0 0 100 100" width="100" height="100">
  <ellipse cx="50" cy="85" rx="20" ry="7" fill="rgba(0,0,0,0.15)" />
  <!-- ดาบอัศวิน -->
  <rect x="72" y="15" width="6" height="40" fill="#E2E8F0" />
  <path d="M 72 15 L 75 5 L 78 15 Z" fill="#F8FAFC" />
  <rect x="68" y="55" width="14" height="4" rx="1" fill="#F59E0B" />
  <!-- ชุดเกราะเต็มตัว -->
  <rect x="35" y="45" width="30" height="30" rx="8" fill="#9CA3AF" />
  <path d="M 40 45 L 60 45 L 50 60 Z" fill="#10B981" /> <!-- ลายหน้าอก -->
  <!-- โล่ว่าว (Kite Shield) -->
  <path d="M 15 45 L 35 45 L 35 65 L 25 80 L 15 65 Z" fill="#64748B" />
  <path d="M 20 50 L 30 50 L 30 65 L 25 73 L 20 65 Z" fill="#10B981" />
  <!-- หมวกเกราะเต็มใบ -->
  <rect x="35" y="23" width="30" height="28" rx="10" fill="#9CA3AF" />
  <rect x="42" y="32" width="16" height="6" rx="2" fill="#111827" /> <!-- ช่องมอง -->
</svg>
