<svg xmlns="http://www.w3.org/2000/svg" viewBox="0 0 100 100" width="100" height="100">
  <ellipse cx="50" cy="85" rx="18" ry="7" fill="rgba(0,0,0,0.15)" />
  <!-- ดาบใหญ่ขึ้น -->
  <path d="M 68 20 L 70 15 L 72 20 Z" fill="#9CA3AF" />
  <rect x="68" y="20" width="4" height="35" fill="#CBD5E1" />
  <rect x="64" y="55" width="12" height="4" rx="1" fill="#F59E0B" />
  <!-- เกราะ -->
  <rect x="35" y="45" width="30" height="30" rx="6" fill="#E2E8F0" />
  <path d="M 30 45 Q 35 40 40 45 L 35 55 Z" fill="#9CA3AF" /> <!-- เกราะไหล่ซ้าย -->
  <path d="M 70 45 Q 65 40 60 45 L 65 55 Z" fill="#9CA3AF" /> <!-- เกราะไหล่ขวา -->
  <circle cx="28" cy="60" r="14" fill="#9CA3AF" />
  <circle cx="28" cy="60" r="10" fill="#10B981" />
  <!-- หัว -->
  <circle cx="50" cy="38" r="15" fill="#fcdbb6" />
  <circle cx="45" cy="36" r="2.5" fill="#333333" /><circle cx="55" cy="36" r="2.5" fill="#333333" />
  <path d="M 35 38 Q 50 15 65 38 Z" fill="#CBD5E1" />
  <path d="M 50 20 Q 55 10 60 18 Q 55 22 50 20 Z" fill="#10B981" />
</svg>
